<svg width="258" height="60" viewBox="0 0 258 60" fill="none" xmlns="http://www.w3.org/2000/svg">
<g clip-path="url(#clip0_6094_114833)">
<path d="M43.734 15.834C37.5871 15.834 32.5027 18.2664 29.6488 22.5342C28.6008 20.6081 27.1373 19.0685 25.2903 17.9532C22.9603 16.5482 20.0566 15.834 16.6524 15.834C11.7699 15.834 7.61343 17.1981 4.56045 19.7856V18.3104C4.56045 17.0663 3.55937 16.0916 2.28022 16.0916C1.00107 16.0916 0 17.0663 0 18.3104L0.0117085 19.1885V47.0224C0.0117085 48.2664 1.01278 49.2412 2.29193 49.2412C3.57108 49.2412 4.57215 48.2664 4.57215 47.0224V26.1316C6.55967 22.4961 11.1611 20.1544 16.3304 20.1544C20.0127 20.1544 22.6617 21.0209 24.4297 22.8035C26.1889 24.5744 27.0817 27.3581 27.0817 31.0726V47.0136C27.0817 48.2577 28.0827 49.2324 29.3619 49.2324C30.641 49.2324 31.6421 48.2577 31.6421 47.0136V31.0023C31.6421 27.5337 32.9388 24.6768 35.3947 22.742C37.4846 21.094 40.403 20.1486 43.4003 20.1486C47.0826 20.1486 49.7317 21.015 51.5026 22.7976C53.2618 24.5685 54.1546 27.3522 54.1546 31.0667V47.0078C54.1546 48.2518 55.1556 49.2265 56.4348 49.2265C57.7139 49.2265 58.715 48.2518 58.715 47.0078V30.8091C58.715 26.2926 57.3715 22.5283 54.8249 19.9232C52.2168 17.2537 48.3823 15.8399 43.734 15.8399V15.834Z" fill="white"/>
<path d="M94.0572 16.0999C93.627 16.0999 93.2464 16.1936 92.9215 16.3751C92.5732 16.5741 92.2893 16.8756 92.0756 17.2708L79.8871 42.7425L67.924 17.4581C67.5171 16.5009 66.756 16.2141 66.2467 16.1321L66.2057 16.0911H65.8428C64.6192 16.0911 63.624 17.0571 63.624 18.2455C63.624 18.6114 63.7235 18.8748 63.7821 19.0358L63.8319 19.1705L77.5044 47.7069L76.6877 49.4339C74.8261 53.3445 72.5898 55.452 70.049 55.6979C68.8899 55.8062 68.0469 56.7107 68.0469 57.8493C68.0469 58.988 69.0421 60.0037 70.2715 60.0037C70.4149 60.0037 70.7515 60.0037 71.0882 59.9276C75.1071 59.2485 78.3562 56.3155 80.7476 51.2136L96.033 19.2407C96.1062 19.109 96.1648 18.948 96.2087 18.7665C96.2379 18.6436 96.2731 18.4562 96.2731 18.2543C96.2731 17.0659 95.2778 16.0999 94.0543 16.0999H94.0572Z" fill="white"/>
<path d="M178.862 16.0879C177.735 16.0879 176.983 16.8694 176.76 17.5836L168.714 41.305L160.919 17.771C160.919 17.771 160.916 17.7622 160.913 17.7563L160.887 17.6715C160.524 16.6762 159.73 16.0879 158.747 16.0879C157.763 16.0879 156.897 16.7377 156.572 17.7739L148.777 41.305L140.736 17.5954C140.514 16.8694 139.759 16.0879 138.632 16.0879C137.408 16.0879 136.413 17.0538 136.413 18.251C136.413 18.3242 136.413 18.4208 136.428 18.532C136.442 18.6491 136.472 18.7662 136.524 18.9184L146.69 47.9993L146.702 48.0315C146.866 48.4559 147.115 48.7984 147.44 49.0472C147.811 49.3341 148.28 49.4863 148.789 49.4863C149.778 49.4863 150.607 48.8774 150.952 47.891L158.747 24.3599L166.542 47.891C166.899 48.8745 167.73 49.4863 168.708 49.4863C169.211 49.4863 169.677 49.3341 170.049 49.0501C170.376 48.7984 170.628 48.4559 170.792 48.0344L180.975 18.895C181.019 18.7516 181.049 18.6403 181.063 18.532C181.078 18.4208 181.081 18.3271 181.081 18.2452C181.081 17.0568 180.086 16.0908 178.862 16.0908V16.0879Z" fill="white"/>
<path d="M215.57 16.0948C214.291 16.0948 213.289 17.0696 213.289 18.3136V19.5576C210.477 17.1515 206.583 15.8372 202.204 15.8372C197.826 15.8372 193.327 17.5877 190.034 20.7636C186.708 23.9717 184.879 28.2189 184.879 32.7267C184.879 42.0759 192.65 49.6805 202.204 49.6805C206.645 49.6805 210.453 48.3985 213.289 45.9602V47.0169C213.289 48.2609 214.291 49.2356 215.57 49.2356C216.849 49.2356 217.85 48.2609 217.85 47.0169V18.3107C217.85 17.0666 216.849 16.0919 215.57 16.0919V16.0948ZM213.289 26.0558V39.5264C211.349 43.077 207.014 45.366 202.204 45.366C195.323 45.366 189.51 39.5762 189.51 32.7238C189.51 25.8714 195.323 20.143 202.204 20.143C207.028 20.143 211.366 22.4584 213.289 26.0529V26.0558Z" fill="white"/>
<path d="M251.935 20.787C248.633 17.5935 244.312 15.8372 239.767 15.8372C235.221 15.8372 231.495 17.1515 228.682 19.5576V18.3136C228.682 17.0696 227.68 16.0948 226.401 16.0948C225.122 16.0948 224.121 17.0696 224.121 18.3136V57.6687C224.121 58.9127 225.122 59.8874 226.401 59.8874C227.68 59.8874 228.682 58.9127 228.682 57.6687V45.9602C231.495 48.3663 235.388 49.6806 239.767 49.6806C249.321 49.6806 257.092 42.0759 257.092 32.7267C257.092 28.2424 255.26 24.0039 251.935 20.787ZM252.461 32.7267C252.461 36.0665 251.133 39.2308 248.718 41.6368C246.303 44.0429 243.124 45.3689 239.767 45.3689C234.893 45.3689 230.558 43.0828 228.682 39.5352V26.05C230.537 22.4613 234.872 20.146 239.767 20.146C246.648 20.146 252.461 25.9065 252.461 32.7267Z" fill="white"/>
<path d="M102.013 51.5183C101.314 51.5183 100.626 51.4569 99.9527 51.3281C98.6911 51.088 97.8599 49.8645 98.0999 48.5912C98.337 47.3208 99.5517 46.4837 100.816 46.7237C102.874 47.113 105.271 46.4691 107.569 44.903C109.858 43.3458 111.717 41.0861 112.665 38.7034C114.129 35.0328 114.158 32.9107 114.193 29.9718C114.214 28.4175 114.237 26.6554 114.465 24.422C114.723 21.9076 115.212 18.1551 116.482 14.6103C117.791 10.9573 119.69 8.0536 122.29 5.73825C125.641 2.74966 130.319 0.770934 135.816 0.02452C137.089 -0.14818 138.26 0.750444 138.43 2.03252C138.602 3.3146 137.71 4.49422 136.436 4.66692C133.243 5.10306 128.729 6.25049 125.369 9.24786C120.835 13.2873 119.649 19.4313 119.09 24.9079C118.882 26.9306 118.859 28.5112 118.841 30.0362C118.8 33.2209 118.765 35.9724 116.977 40.4538C115.689 43.6795 113.21 46.7179 110.171 48.7844C107.537 50.5787 104.706 51.5183 102.016 51.5183H102.013Z" fill="url(#paint0_linear_6094_114833)"/>
</g>
<defs>
<linearGradient id="paint0_linear_6094_114833" x1="135.221" y1="-3.45213" x2="93.255" y2="52.6025" gradientUnits="userSpaceOnUse">
<stop stop-color="#68ECF2"/>
<stop offset="1" stop-color="#3C4EAC"/>
</linearGradient>
<clipPath id="clip0_6094_114833">
<rect width="257.091" height="60" fill="white"/>
</clipPath>
</defs>
</svg>
