<svg width="21" height="19" viewBox="0 0 21 19" fill="none" xmlns="http://www.w3.org/2000/svg">
<path fill-rule="evenodd" clip-rule="evenodd" d="M10.409 18.8848C15.9092 18.8848 20.368 14.8553 20.368 9.88477C20.368 4.9142 15.9092 0.884766 10.409 0.884766C4.90875 0.884766 0.449951 4.9142 0.449951 9.88477C0.449951 14.8553 4.90875 18.8848 10.409 18.8848ZM5.58592 15.9745C5.76334 16.0051 5.94463 16.0198 6.12899 16.0198H6.12976C6.83868 16.0198 7.58463 15.796 8.27889 15.3687C9.07961 14.8765 9.73299 14.1529 10.0724 13.3847C10.5437 12.3175 10.553 11.6623 10.5638 10.904L10.5638 10.9036C10.5684 10.5404 10.5746 10.164 10.6294 9.68225C10.7767 8.37794 11.0891 6.91469 12.284 5.95266C13.1696 5.23881 14.3591 4.96554 15.2007 4.86167C15.5363 4.82054 15.7715 4.5396 15.726 4.23426C15.6813 3.92892 15.3727 3.71491 15.0372 3.75604C13.5885 3.9338 12.3558 4.40506 11.4725 5.11682C10.7875 5.66824 10.2869 6.35978 9.94204 7.22979C9.60725 8.074 9.47842 8.96771 9.41054 9.56653C9.35037 10.0984 9.3442 10.5181 9.3388 10.8883C9.32954 11.5882 9.32183 12.0936 8.93612 12.9678C8.68619 13.5352 8.19635 14.0734 7.59311 14.4443C6.98756 14.8172 6.35578 14.9706 5.81349 14.8779C5.48024 14.8207 5.16011 15.0201 5.09762 15.3226C5.03437 15.6259 5.25345 15.9173 5.58592 15.9745Z" fill="white"/>
</svg>
